<svg width="160" height="160" viewBox="0 0 160 160" fill="none" xmlns="http://www.w3.org/2000/svg">
<g clip-path="url(#clip0_63_609)">
<path d="M159.701 40.1766C154.99 -12.359 90.3688 3.09473 80.0049 32.9822C69.6361 3.09473 5.0152 -12.359 0.308441 40.1766C-5.73671 107.758 80.0049 147.362 80.0049 147.362C80.0049 147.362 92.7172 141.467 107.992 130.401C106.907 130.496 105.827 130.65 104.748 130.65H104.738C88.6174 130.65 73.6115 121.993 65.5812 108.066C59.5609 97.6528 57.9687 85.4929 61.0933 73.8305C64.2179 62.168 71.681 52.4311 82.1145 46.4109C88.9557 42.4604 96.7373 40.3707 104.618 40.3707C120.739 40.3707 135.755 49.018 143.78 62.9343C147.8 69.8849 149.795 77.6168 149.785 85.4481C156.99 72.2284 161.199 57.0782 159.701 40.1766Z" fill="#0DCAF4"/>
<path d="M137.322 66.6609C126.933 48.6647 103.837 42.4902 85.8362 52.869C67.845 63.2577 61.6556 86.3486 72.0493 104.34C82.438 122.356 105.529 128.52 123.53 118.132C141.511 107.758 147.706 84.657 137.322 66.6609ZM120.401 112.753C105.38 121.44 86.1198 116.246 77.4526 101.235C68.7655 86.2093 73.935 66.9494 88.9558 58.2772C103.982 49.62 123.251 54.7845 131.929 69.8004C140.581 84.8112 135.436 104.071 120.401 112.753Z" fill="#189BF8"/>
<path d="M116.793 125.187L132.993 115.823L145.472 137.412L129.267 146.78L116.793 125.187ZM130.938 149.726C133.531 154.209 139.257 155.731 143.725 153.154C148.193 150.572 149.731 144.85 147.148 140.367L130.938 149.726Z" fill="#189BF8"/>
</g>
<defs>
<clipPath id="clip0_63_609">
<rect width="160" height="160" fill="white"/>
</clipPath>
</defs>
</svg>
