<svg width="164" height="144" viewBox="0 0 164 144" fill="none" xmlns="http://www.w3.org/2000/svg">
<path d="M110.576 18.8019C110.576 8.43642 102.143 8.96773e-05 91.7779 8.96773e-05C84.1753 8.96773e-05 77.6096 4.53994 74.6556 11.0501C71.6965 4.53994 65.1377 8.96773e-05 57.531 8.96773e-05C47.1682 8.96773e-05 38.7327 8.43642 38.7327 18.8019C38.7327 20.9842 39.1117 23.0837 39.801 25.0364C40.5864 27.2605 41.7768 29.296 43.2876 31.0467C43.931 31.7949 44.6344 32.4936 45.3881 33.137L74.0583 61.6143C74.2375 61.7935 74.4718 61.8808 74.7017 61.8808C74.9332 61.8808 75.1628 61.7935 75.3406 61.6143L105.081 32.0706L105.079 32.0662C107.006 30.1363 108.518 27.7889 109.464 25.174C110.184 23.1799 110.576 21.039 110.576 18.8019" fill="#0DCAF4"/>
<path d="M163.947 90.4319L164 90.2844C152.153 90.2844 144.9 83.0622 136.182 76.9785C129.853 72.5631 122.757 68.741 112.54 68.741C107.951 68.741 104.054 68.7817 100.744 68.8789H76.6544C73.1298 68.8789 70.2749 71.7362 70.2749 75.2601C70.2749 78.7844 73.1298 81.642 76.6544 81.642H90.3022H99.276C103.836 82.3868 107.325 86.3331 107.325 91.107C107.325 94.7283 105.303 97.8428 102.345 99.4737C101.628 99.6673 98.1688 100.586 93.5511 101.808C90.5734 102.525 87.746 103.283 85.0942 104.051L84.5244 104.198C74.5911 106.825 63.8902 109.642 61.9516 110.097C60.6696 110.166 59.4934 110.111 58.4615 109.853L22.8299 86.7564L16.377 82.0883L16.3728 82.1015C16.0699 81.8949 15.7384 81.7154 15.4099 81.5501C14.9326 81.3073 14.4405 81.0951 13.9218 80.9342C13.5144 80.8152 13.0895 80.7279 12.6625 80.659C12.2051 80.5898 11.741 80.544 11.2657 80.544C10.6295 80.544 10.0092 80.6082 9.4092 80.7329C4.14663 81.1871 0 85.5522 0 90.933C0 93.7817 1.18312 96.3265 3.05996 98.1785L3.05276 98.1874L3.10136 98.2244C3.84986 98.9508 4.68836 99.5798 5.62579 100.062L8.08129 101.845L63.9343 142.333L63.9385 142.328C64.1656 142.416 64.3957 142.503 64.6253 142.594C65.8818 143.026 67.2124 143.312 68.6137 143.312C69.4337 143.312 70.2335 143.224 71.01 143.073L71.2874 142.999C90.2085 138.184 129.309 128.246 147.607 123.739C148.057 123.568 148.482 123.412 148.924 123.247C153.592 122.075 159.962 120.683 163.947 120.683V118.009L164 118.004L163.947 114.333V91.2362V90.4319" fill="#189BF8"/>
</svg>
