<svg width="357" height="431" viewBox="0 0 357 431" fill="none" xmlns="http://www.w3.org/2000/svg">
<rect width="357" height="431" rx="61" fill="#171717"/>
<path d="M0 61C0 27.3106 27.3106 0 61 0H296C329.689 0 357 27.3106 357 61V370C357 403.689 329.689 431 296 431H61C27.3106 431 0 403.689 0 370V61Z" fill="#171717"/>
<path d="M207.576 80.8019C207.576 70.4364 199.143 62.0001 188.778 62.0001C181.175 62.0001 174.609 66.5399 171.655 73.0501C168.696 66.5399 162.138 62.0001 154.531 62.0001C144.168 62.0001 135.732 70.4364 135.732 80.8019C135.732 82.9842 136.112 85.0837 136.801 87.0364C137.586 89.2605 138.777 91.296 140.287 93.0467C140.931 93.7949 141.634 94.4936 142.388 95.137L171.058 123.614C171.237 123.794 171.472 123.881 171.701 123.881C171.933 123.881 172.163 123.794 172.34 123.614L202.081 94.0706L202.079 94.0662C204.006 92.1363 205.518 89.7889 206.464 87.174C207.183 85.1799 207.576 83.039 207.576 80.8019" fill="#99407F"/>
<path d="M260.947 152.432L261 152.284C249.153 152.284 241.9 145.062 233.182 138.978C226.853 134.563 219.757 130.741 209.54 130.741C204.951 130.741 201.054 130.782 197.744 130.879H173.654C170.13 130.879 167.275 133.736 167.275 137.26C167.275 140.784 170.13 143.642 173.654 143.642H187.302H196.276C200.836 144.387 204.325 148.333 204.325 153.107C204.325 156.728 202.303 159.843 199.345 161.474C198.628 161.667 195.169 162.586 190.551 163.808C187.573 164.525 184.746 165.283 182.094 166.051L181.524 166.198C171.591 168.825 160.89 171.642 158.952 172.097C157.67 172.166 156.493 172.111 155.461 171.853L119.83 148.756L113.377 144.088L113.373 144.101C113.07 143.895 112.738 143.715 112.41 143.55C111.933 143.307 111.44 143.095 110.922 142.934C110.514 142.815 110.089 142.728 109.663 142.659C109.205 142.59 108.741 142.544 108.266 142.544C107.63 142.544 107.009 142.608 106.409 142.733C101.147 143.187 97 147.552 97 152.933C97 155.782 98.1831 158.326 100.06 160.179L100.053 160.187L100.101 160.224C100.85 160.951 101.688 161.58 102.626 162.062L105.081 163.845L160.934 204.333L160.939 204.328C161.166 204.416 161.396 204.503 161.625 204.594C162.882 205.026 164.212 205.312 165.614 205.312C166.434 205.312 167.233 205.224 168.01 205.073L168.287 204.999C187.208 200.184 226.309 190.246 244.607 185.739C245.057 185.568 245.482 185.412 245.924 185.247C250.592 184.075 256.962 182.683 260.947 182.683V180.009L261 180.004L260.947 176.333V153.236V152.432" fill="#5D205A"/>
<path d="M66.228 311L56.2393 276.091H64.3018L70.0803 300.347H70.37L76.745 276.091H83.6484L90.0064 300.398H90.3132L96.0916 276.091H104.154L94.1655 311H86.9723L80.3246 288.176H80.0518L73.4212 311H66.228ZM117.985 311.511C115.337 311.511 113.048 310.949 111.116 309.824C109.195 308.687 107.712 307.108 106.667 305.085C105.621 303.051 105.099 300.693 105.099 298.011C105.099 295.307 105.621 292.943 106.667 290.92C107.712 288.886 109.195 287.307 111.116 286.182C113.048 285.045 115.337 284.477 117.985 284.477C120.633 284.477 122.917 285.045 124.837 286.182C126.769 287.307 128.258 288.886 129.303 290.92C130.349 292.943 130.871 295.307 130.871 298.011C130.871 300.693 130.349 303.051 129.303 305.085C128.258 307.108 126.769 308.687 124.837 309.824C122.917 310.949 120.633 311.511 117.985 311.511ZM118.019 305.886C119.224 305.886 120.229 305.545 121.036 304.864C121.843 304.17 122.451 303.227 122.86 302.034C123.281 300.841 123.491 299.483 123.491 297.96C123.491 296.438 123.281 295.08 122.86 293.886C122.451 292.693 121.843 291.75 121.036 291.057C120.229 290.364 119.224 290.017 118.019 290.017C116.803 290.017 115.781 290.364 114.951 291.057C114.133 291.75 113.513 292.693 113.093 293.886C112.684 295.08 112.479 296.438 112.479 297.96C112.479 299.483 112.684 300.841 113.093 302.034C113.513 303.227 114.133 304.17 114.951 304.864C115.781 305.545 116.803 305.886 118.019 305.886ZM143.854 276.091V311H136.593V276.091H143.854ZM162.501 311.511C159.853 311.511 157.563 310.949 155.631 309.824C153.711 308.687 152.228 307.108 151.183 305.085C150.137 303.051 149.614 300.693 149.614 298.011C149.614 295.307 150.137 292.943 151.183 290.92C152.228 288.886 153.711 287.307 155.631 286.182C157.563 285.045 159.853 284.477 162.501 284.477C165.148 284.477 167.433 285.045 169.353 286.182C171.285 287.307 172.773 288.886 173.819 290.92C174.864 292.943 175.387 295.307 175.387 298.011C175.387 300.693 174.864 303.051 173.819 305.085C172.773 307.108 171.285 308.687 169.353 309.824C167.433 310.949 165.148 311.511 162.501 311.511ZM162.535 305.886C163.739 305.886 164.745 305.545 165.552 304.864C166.359 304.17 166.967 303.227 167.376 302.034C167.796 300.841 168.006 299.483 168.006 297.96C168.006 296.438 167.796 295.08 167.376 293.886C166.967 292.693 166.359 291.75 165.552 291.057C164.745 290.364 163.739 290.017 162.535 290.017C161.319 290.017 160.296 290.364 159.467 291.057C158.648 291.75 158.029 292.693 157.609 293.886C157.2 295.08 156.995 296.438 156.995 297.96C156.995 299.483 157.2 300.841 157.609 302.034C158.029 303.227 158.648 304.17 159.467 304.864C160.296 305.545 161.319 305.886 162.535 305.886ZM188.37 295.864V311H181.109V284.818H188.029V289.438H188.336C188.915 287.915 189.887 286.71 191.251 285.824C192.614 284.926 194.268 284.477 196.211 284.477C198.029 284.477 199.614 284.875 200.967 285.67C202.319 286.466 203.37 287.602 204.12 289.08C204.87 290.545 205.245 292.295 205.245 294.33V311H197.984V295.625C197.995 294.023 197.586 292.773 196.756 291.875C195.927 290.966 194.785 290.511 193.33 290.511C192.353 290.511 191.489 290.722 190.739 291.142C190.001 291.562 189.421 292.176 189.001 292.983C188.592 293.778 188.381 294.739 188.37 295.864ZM236.913 311.477C234.367 311.477 232.1 311.04 230.112 310.165C228.134 309.278 226.572 308.062 225.424 306.517C224.288 304.96 223.702 303.165 223.668 301.131H231.1C231.146 301.983 231.424 302.733 231.935 303.381C232.458 304.017 233.151 304.511 234.015 304.864C234.879 305.216 235.85 305.392 236.93 305.392C238.055 305.392 239.049 305.193 239.913 304.795C240.776 304.398 241.452 303.847 241.941 303.142C242.43 302.437 242.674 301.625 242.674 300.705C242.674 299.773 242.413 298.949 241.89 298.233C241.379 297.506 240.64 296.937 239.674 296.528C238.719 296.119 237.583 295.915 236.265 295.915H233.009V290.494H236.265C237.379 290.494 238.362 290.301 239.214 289.915C240.077 289.528 240.748 288.994 241.225 288.312C241.702 287.619 241.941 286.812 241.941 285.892C241.941 285.017 241.731 284.25 241.31 283.591C240.901 282.92 240.322 282.398 239.572 282.023C238.833 281.648 237.969 281.46 236.981 281.46C235.981 281.46 235.066 281.642 234.237 282.006C233.407 282.358 232.742 282.864 232.242 283.523C231.742 284.182 231.475 284.955 231.441 285.841H224.367C224.401 283.83 224.975 282.057 226.089 280.523C227.202 278.989 228.702 277.79 230.589 276.926C232.487 276.051 234.629 275.614 237.015 275.614C239.424 275.614 241.532 276.051 243.339 276.926C245.146 277.801 246.549 278.983 247.549 280.472C248.56 281.949 249.06 283.608 249.049 285.449C249.06 287.403 248.452 289.034 247.225 290.341C246.009 291.648 244.424 292.477 242.469 292.83V293.102C245.038 293.432 246.992 294.324 248.333 295.778C249.685 297.222 250.356 299.028 250.344 301.199C250.356 303.188 249.782 304.955 248.623 306.5C247.475 308.045 245.89 309.261 243.867 310.148C241.844 311.034 239.526 311.477 236.913 311.477ZM259.978 311.443C258.853 311.443 257.887 311.045 257.08 310.25C256.285 309.443 255.887 308.477 255.887 307.352C255.887 306.239 256.285 305.284 257.08 304.489C257.887 303.693 258.853 303.295 259.978 303.295C261.069 303.295 262.023 303.693 262.842 304.489C263.66 305.284 264.069 306.239 264.069 307.352C264.069 308.102 263.876 308.79 263.489 309.415C263.114 310.028 262.62 310.523 262.006 310.898C261.393 311.261 260.717 311.443 259.978 311.443ZM283.244 311.767C280.312 311.756 277.789 311.034 275.675 309.602C273.573 308.17 271.954 306.097 270.817 303.381C269.692 300.665 269.136 297.398 269.147 293.58C269.147 289.773 269.71 286.528 270.835 283.847C271.971 281.165 273.59 279.125 275.692 277.727C277.806 276.318 280.323 275.614 283.244 275.614C286.164 275.614 288.675 276.318 290.778 277.727C292.891 279.136 294.516 281.182 295.653 283.864C296.789 286.534 297.352 289.773 297.34 293.58C297.34 297.409 296.772 300.682 295.636 303.398C294.511 306.114 292.897 308.187 290.795 309.619C288.692 311.051 286.175 311.767 283.244 311.767ZM283.244 305.648C285.244 305.648 286.84 304.642 288.033 302.631C289.227 300.619 289.817 297.602 289.806 293.58C289.806 290.932 289.533 288.727 288.988 286.966C288.454 285.205 287.692 283.881 286.704 282.994C285.727 282.108 284.573 281.665 283.244 281.665C281.255 281.665 279.664 282.659 278.471 284.648C277.278 286.636 276.675 289.614 276.664 293.58C276.664 296.261 276.931 298.5 277.465 300.295C278.011 302.08 278.778 303.42 279.766 304.318C280.755 305.205 281.914 305.648 283.244 305.648ZM74.4169 334.091H83.5192L93.1328 357.545H93.5419L103.156 334.091H112.258V369H105.099V346.278H104.809L95.7749 368.83H90.8999L81.8658 346.193H81.576V369H74.4169V334.091ZM131.134 369.511C128.441 369.511 126.123 368.966 124.18 367.875C122.248 366.773 120.759 365.216 119.714 363.205C118.668 361.182 118.146 358.79 118.146 356.028C118.146 353.335 118.668 350.972 119.714 348.938C120.759 346.903 122.231 345.318 124.129 344.182C126.038 343.045 128.276 342.477 130.844 342.477C132.572 342.477 134.18 342.756 135.668 343.312C137.168 343.858 138.475 344.682 139.589 345.784C140.714 346.886 141.589 348.273 142.214 349.943C142.839 351.602 143.151 353.545 143.151 355.773V357.767H121.043V353.267H136.316C136.316 352.222 136.089 351.295 135.634 350.489C135.18 349.682 134.549 349.051 133.742 348.597C132.947 348.131 132.021 347.898 130.964 347.898C129.862 347.898 128.884 348.153 128.032 348.665C127.191 349.165 126.532 349.841 126.055 350.693C125.577 351.534 125.333 352.472 125.322 353.506V357.784C125.322 359.08 125.56 360.199 126.038 361.142C126.526 362.085 127.214 362.812 128.1 363.324C128.987 363.835 130.038 364.091 131.254 364.091C132.06 364.091 132.799 363.977 133.469 363.75C134.14 363.523 134.714 363.182 135.191 362.727C135.668 362.273 136.032 361.716 136.282 361.057L142.998 361.5C142.657 363.114 141.958 364.523 140.901 365.727C139.856 366.92 138.504 367.852 136.844 368.523C135.197 369.182 133.293 369.511 131.134 369.511ZM148.89 369V342.818H155.81V347.438H156.117C156.663 345.903 157.572 344.693 158.844 343.807C160.117 342.92 161.64 342.477 163.413 342.477C165.208 342.477 166.737 342.926 167.998 343.824C169.259 344.71 170.1 345.915 170.521 347.438H170.793C171.327 345.938 172.293 344.739 173.691 343.841C175.1 342.932 176.765 342.477 178.685 342.477C181.129 342.477 183.112 343.256 184.634 344.812C186.168 346.358 186.935 348.551 186.935 351.392V369H179.691V352.824C179.691 351.369 179.305 350.278 178.532 349.551C177.759 348.824 176.793 348.46 175.634 348.46C174.316 348.46 173.288 348.881 172.549 349.722C171.81 350.551 171.441 351.648 171.441 353.011V369H164.401V352.67C164.401 351.386 164.032 350.364 163.293 349.602C162.566 348.841 161.606 348.46 160.413 348.46C159.606 348.46 158.879 348.665 158.231 349.074C157.594 349.472 157.089 350.034 156.714 350.761C156.339 351.477 156.151 352.318 156.151 353.284V369H148.89ZM193.808 369V334.091H201.069V347.216H201.29C201.609 346.511 202.069 345.795 202.671 345.068C203.285 344.33 204.08 343.716 205.058 343.227C206.046 342.727 207.273 342.477 208.739 342.477C210.648 342.477 212.41 342.977 214.023 343.977C215.637 344.966 216.927 346.46 217.893 348.46C218.859 350.449 219.342 352.943 219.342 355.943C219.342 358.864 218.87 361.33 217.927 363.341C216.995 365.341 215.722 366.858 214.109 367.892C212.506 368.915 210.711 369.426 208.722 369.426C207.313 369.426 206.114 369.193 205.126 368.727C204.148 368.261 203.347 367.676 202.722 366.972C202.097 366.256 201.62 365.534 201.29 364.807H200.967V369H193.808ZM200.915 355.909C200.915 357.466 201.131 358.824 201.563 359.983C201.995 361.142 202.62 362.045 203.438 362.693C204.256 363.33 205.251 363.648 206.421 363.648C207.603 363.648 208.603 363.324 209.421 362.676C210.239 362.017 210.859 361.108 211.279 359.949C211.711 358.778 211.927 357.432 211.927 355.909C211.927 354.398 211.717 353.068 211.296 351.92C210.876 350.773 210.256 349.875 209.438 349.227C208.62 348.58 207.614 348.256 206.421 348.256C205.239 348.256 204.239 348.568 203.421 349.193C202.614 349.818 201.995 350.705 201.563 351.852C201.131 353 200.915 354.352 200.915 355.909ZM237.119 369.511C234.425 369.511 232.107 368.966 230.164 367.875C228.232 366.773 226.744 365.216 225.698 363.205C224.653 361.182 224.13 358.79 224.13 356.028C224.13 353.335 224.653 350.972 225.698 348.938C226.744 346.903 228.215 345.318 230.113 344.182C232.022 343.045 234.261 342.477 236.829 342.477C238.556 342.477 240.164 342.756 241.653 343.312C243.153 343.858 244.46 344.682 245.573 345.784C246.698 346.886 247.573 348.273 248.198 349.943C248.823 351.602 249.136 353.545 249.136 355.773V357.767H227.028V353.267H242.3C242.3 352.222 242.073 351.295 241.619 350.489C241.164 349.682 240.533 349.051 239.727 348.597C238.931 348.131 238.005 347.898 236.948 347.898C235.846 347.898 234.869 348.153 234.016 348.665C233.175 349.165 232.516 349.841 232.039 350.693C231.562 351.534 231.317 352.472 231.306 353.506V357.784C231.306 359.08 231.545 360.199 232.022 361.142C232.511 362.085 233.198 362.812 234.085 363.324C234.971 363.835 236.022 364.091 237.238 364.091C238.045 364.091 238.783 363.977 239.454 363.75C240.124 363.523 240.698 363.182 241.175 362.727C241.653 362.273 242.016 361.716 242.266 361.057L248.982 361.5C248.641 363.114 247.942 364.523 246.886 365.727C245.84 366.92 244.488 367.852 242.829 368.523C241.181 369.182 239.278 369.511 237.119 369.511ZM254.874 369V342.818H261.914V347.386H262.187C262.664 345.761 263.465 344.534 264.59 343.705C265.715 342.864 267.011 342.443 268.477 342.443C268.84 342.443 269.232 342.466 269.653 342.511C270.073 342.557 270.442 342.619 270.761 342.699V349.142C270.42 349.04 269.948 348.949 269.346 348.869C268.744 348.79 268.192 348.75 267.692 348.75C266.624 348.75 265.67 348.983 264.829 349.449C263.999 349.903 263.34 350.54 262.852 351.358C262.374 352.176 262.136 353.119 262.136 354.188V369H254.874Z" fill="white"/>
</svg>
