<svg width="164" height="151" viewBox="0 0 164 151" fill="none" xmlns="http://www.w3.org/2000/svg">
<path d="M41.2267 104.363L41.2527 104.335L41.509 104.597L64.2059 82.2338C62.648 80.1856 61.2835 78.0475 60.1183 75.8283L36.2666 99.3301L41.2267 104.363Z" fill="#0DCAF4"/>
<path d="M67.956 101.653L71.0709 104.813L80.3972 95.6207C78.1293 94.4957 75.9323 93.1772 73.8355 91.6553L63.4585 101.878C64.9612 101.865 66.4604 101.815 67.956 101.653Z" fill="#0DCAF4"/>
<path d="M85.736 119.703L95.332 110.246L90.1159 104.952L80.5176 114.41L85.736 119.703Z" fill="#0DCAF4"/>
<path d="M100.625 105.029L105.631 100.096C102.34 100.447 99.0145 100.415 95.7236 100.055L100.625 105.029Z" fill="#0DCAF4"/>
<path d="M70.8504 134.373L80.445 124.915L75.2238 119.622L65.6323 129.075L70.8504 134.373Z" fill="#0DCAF4"/>
<path d="M56.1795 119.482L65.7707 110.03L60.556 104.736L50.9614 114.189L56.1795 119.482Z" fill="#0DCAF4"/>
<path d="M145.902 102.013L134.584 90.5302L124.997 99.9829L136.191 111.343L136.404 111.588L136.636 111.803C137.928 112.996 139.567 113.594 141.207 113.594C142.92 113.594 144.631 112.951 145.94 111.655C147.255 110.363 147.927 108.662 147.953 106.951C147.976 105.258 147.363 103.553 146.116 102.228L146.018 102.116L145.902 102.013Z" fill="#0DCAF4"/>
<path d="M94.2392 138.919L89.8988 134.512L80.3042 143.965L84.2376 147.958L84.6707 148.44L85.1464 148.881C87.7833 151.09 91.7187 150.974 94.2204 148.511C96.8587 145.91 96.9039 141.669 94.3342 139.013L94.2896 138.959L94.2392 138.919Z" fill="#0DCAF4"/>
<path d="M20.1658 82.9904C20.7717 83.6967 21.3881 84.3995 22.0561 85.0698C22.5461 85.5698 23.0605 86.0287 23.5728 86.4926C23.753 86.6537 23.9227 86.8302 24.1026 86.9878L26.8139 89.7372L55.4283 61.5459L73.0596 44.1664L73.077 44.1804L80.6668 36.6987L80.9595 36.4189C81.1271 36.2304 81.2175 36.0053 81.3279 35.7941C81.5897 35.6053 81.8546 35.42 82.1109 35.2315L82.6198 35.0375C82.7688 34.7225 82.9539 34.421 83.2188 34.1596C84.3894 33.003 86.2711 33.0076 87.4466 34.1553L87.5227 34.2357L108.868 56.0723L113.158 60.4525C114.337 61.7933 116.061 62.653 117.993 62.6753C121.615 62.7162 124.582 59.8129 124.617 56.1936C124.641 54.3437 123.879 52.6739 122.664 51.4724L122.515 51.3148L95.7636 23.96L95.7567 23.9728L95.6841 23.9019C91.1202 19.2742 85.8123 15.8532 80.1439 13.5801C75.0437 11.5319 69.6611 10.4014 64.2474 10.2629C62.3379 10.2083 60.4387 10.2758 58.543 10.4603C56.8377 10.6265 55.1445 10.8931 53.465 11.2481C50.1516 11.1217 46.8796 9.80324 44.3725 7.25584L38.3961 1.19273L0 39.0298L5.41862 44.5351L8.79474 47.9613C10.4013 50.3107 11.1805 53.0426 11.1387 55.7711L11.0987 56.4102C10.99 58.737 11.0987 61.069 11.4056 63.3784C12.3056 70.0534 14.9703 76.5448 19.404 82.085L19.3362 82.1525L20.1658 82.9904Z" fill="#0DCAF4"/>
<path d="M104.786 119.838L95.1924 129.295L106.553 140.832L106.775 141.071L107.014 141.291C108.243 142.43 109.794 143.024 111.366 143.074C113.139 143.128 114.932 142.489 116.3 141.142C117.665 139.797 118.329 138.014 118.298 136.236C118.271 134.57 117.633 132.901 116.366 131.618L116.129 131.402L116.124 131.397L116.129 131.402L116.155 131.379L104.786 119.838Z" fill="#0DCAF4"/>
<path d="M116.131 131.402L116.123 131.394L116.131 131.402Z" fill="#0DCAF4"/>
<path d="M134.188 119.901L119.676 105.173L110.078 114.626L124.641 129.403L124.797 129.583C127.419 132.235 131.689 132.271 134.345 129.651C137.001 127.036 137.034 122.764 134.416 120.108L134.188 119.901Z" fill="#0DCAF4"/>
<path d="M158.495 43.8241L164 38.3997L126.158 -3.05176e-05L120.095 5.97728C117.547 8.48863 114.25 9.75847 110.944 9.83542C109.273 9.45294 107.585 9.16374 105.878 8.97064C103.987 8.75867 102.09 8.66513 100.18 8.69116C93.3019 8.76811 86.4393 10.4153 80.1441 13.5803C85.8125 15.8533 91.1204 19.2744 95.6842 23.902L95.7569 23.973L95.7638 23.9601L122.515 51.3149L122.664 51.4726C123.88 52.674 124.641 54.3438 124.617 56.1938C124.582 59.813 121.615 62.7163 117.993 62.6754C116.061 62.6531 114.337 61.7935 113.158 60.4527L108.868 56.0725L87.5229 34.2358L87.4468 34.1554C86.2713 33.0077 84.3896 33.0031 83.219 34.1597C82.9541 34.4212 82.7691 34.7227 82.62 35.0376L82.1111 35.2316C81.8548 35.4201 81.5899 35.6055 81.3281 35.7943C81.2177 36.0054 81.1273 36.2305 80.9597 36.419L80.6671 36.6988L73.0772 44.1805L73.0598 44.1665L55.4285 61.546L26.8141 89.7373L17.1812 99.2263L17.0671 99.3302L16.9647 99.4377C15.6957 100.748 15.0552 102.44 15.0552 104.138C15.0552 105.848 15.6991 107.559 16.9961 108.868C18.2891 110.187 19.9895 110.853 21.6999 110.881C23.3427 110.903 24.9893 110.327 26.2946 109.157L26.5335 108.94L26.7552 108.702L36.2668 99.3302L60.1185 75.8283C61.2837 78.0476 62.6482 80.1856 64.2061 82.2339L41.5092 104.597L28.6318 117.285L28.398 117.493C25.7422 120.108 25.7165 124.38 28.3271 127.036C30.9449 129.692 35.2175 129.718 37.8733 127.108L38.0361 126.928L50.9619 114.189L60.5565 104.736L63.4583 101.878L73.8353 91.6554C75.9321 93.1772 78.1291 94.4957 80.397 95.6208L71.0708 104.813L65.7711 110.03L56.18 119.482L46.4936 129.025L46.5193 129.048L46.277 129.268C44.9889 130.533 44.3278 132.185 44.2737 133.855C44.2205 135.633 44.859 137.425 46.2044 138.788C47.5477 140.152 49.3345 140.819 51.1109 140.792C52.6829 140.769 54.2356 140.193 55.4872 139.077L55.7263 138.86L55.9463 138.621L65.6327 129.075L75.2241 119.622L80.518 114.41L90.1163 104.952L95.1267 100.019C95.3238 100.042 95.5246 100.032 95.724 100.055C99.0149 100.415 102.341 100.447 105.632 100.096L100.625 105.029L95.3324 110.246L85.7364 119.703L80.4454 124.915L70.8508 134.373L68.2919 136.889L68.2433 136.934L68.195 136.984C65.5878 139.603 65.5738 143.843 68.1706 146.481C70.6394 148.984 74.5624 149.154 77.2374 146.985L77.724 146.553L78.16 146.076L80.3035 143.965L89.898 134.512L95.1922 129.295L104.785 119.838L110.078 114.626L119.676 105.173L121.781 103.093L121.809 103.12L124.996 99.983L134.584 90.5303L139.184 86.0013C139.896 85.3986 140.59 84.773 141.269 84.1107C141.94 83.4493 142.57 82.7599 143.187 82.0591L144.018 81.2349L143.956 81.1674C148.474 75.6899 151.225 69.2431 152.234 62.5813C152.575 60.2727 152.716 57.945 152.64 55.6173L152.612 54.9783C152.602 52.251 153.431 49.5276 155.071 47.2051L158.495 43.8241Z" fill="#189BF8"/>
</svg>
